# xmcd CD database file
#
# Track frame offsets:
#	182
#	15337
#	35765
#	73977
#	93862
#	108160
#	128007
#	142475
#	158115
#	176582
#
# Disc length: 2825 seconds
#
# Revision: 2
# Processed by: cddbd v1.4PL0 Copyright (c) Steve Scherf et al.
# Submitted via: CDex 1.51
#
DISCID=860b070a
DTITLE=George Thorogood And The Destroyers - George Thorogood And The Destroyers
DYEAR=1977
DGENRE=Blues
TTITLE0=You Got To Lose
TTITLE1=Madison Blues
TTITLE2=One Bourbon, One Scotch, One Beer
TTITLE3=Kind Hearted Woman
TTITLE4=Can't Stop Lovin'
TTITLE5=Ride On Josephine
TTITLE6=Homesick Boy
TTITLE7=John Hardy
TTITLE8=I'll Change My Style
TTITLE9=Delaware Slide
EXTD=YEAR: 1977
EXTT0=(E. Hooker)
EXTT1=(E. James)
EXTT2=(John Lee Hooker)
EXTT3=(Robert Johnson/arr. George Thorogood)
EXTT4=(E. James)
EXTT5=(E. McDaniel)
EXTT6=(G. Thorogood)
EXTT7=(Trad., arr. George Thorogood)
EXTT8=(Parker-Villa)
EXTT9=(George Thorogood)
PLAYORDER=
